<svg xmlns="http://www.w3.org/2000/svg" version="1.1" xmlns:xlink="http://www.w3.org/1999/xlink" xmlns:svgjs="http://svgjs.com/svgjs" width="512" height="512"><svg version="1.1" id="SvgjsSvg1000" xmlns="http://www.w3.org/2000/svg" xmlns:xlink="http://www.w3.org/1999/xlink" x="0px" y="0px" viewBox="0 0 512 512" style="enable-background:new 0 0 512 512;" xml:space="preserve">
<style type="text/css">
	.st0{fill:#FF671F;stroke:#00E78F;stroke-width:0.6491;stroke-miterlimit:10;}
	.st1{fill:#046A38;stroke:#00E78F;stroke-width:0.6737;stroke-miterlimit:10;}
	.st2{fill:#FFFFFF;stroke:#FFFFFF;stroke-width:1.17;stroke-miterlimit:10;}
	.st3{fill:#06038D;stroke:#FFFFFF;stroke-width:0.9611;stroke-miterlimit:10;}
	.st4{fill:none;stroke:#FFFFFF;stroke-width:0.9386;stroke-miterlimit:10;}
</style>
<rect x="4.93" y="4.49" class="st0" width="502.25" height="150.23"></rect>
<rect x="4.9" y="345.3" class="st1" width="502.31" height="160.19"></rect>
<rect x="4.27" y="155.61" class="st2" width="502.31" height="188.72"></rect>
<circle class="st3" cx="263.5" cy="250.5" r="93"></circle>
<g>
	<line class="st4" x1="264.5" y1="342.76" x2="259.69" y2="158.75"></line>
	<line class="st4" x1="175" y1="252.13" x2="354" y2="250.3"></line>
	<line class="st4" x1="197.14" y1="313.46" x2="329.94" y2="185.31"></line>
	<line class="st4" x1="214.46" y1="328.11" x2="312.61" y2="171.57"></line>
	<line class="st4" x1="238.52" y1="339.1" x2="285.67" y2="161.51"></line>
	<line class="st4" x1="288.56" y1="340.02" x2="235.63" y2="163.33"></line>
	<line class="st4" x1="310.69" y1="329.94" x2="215.42" y2="172.48"></line>
	<line class="st4" x1="328.98" y1="316.21" x2="197.14" y2="188.05"></line>
	<line class="st4" x1="344.37" y1="296.07" x2="183.66" y2="206.36"></line>
	<line class="st4" x1="352.07" y1="275.02" x2="176.93" y2="227.42"></line>
	<line class="st4" x1="352.07" y1="226.5" x2="175.96" y2="271.35"></line>
	<line class="st4" x1="344.37" y1="205.44" x2="183.66" y2="294.24"></line>
</g>
</svg><style>@media (prefers-color-scheme: light) { :root { filter: none; } }
</style></svg>